<?xml version="1.0" encoding="utf-8"?>
<!-- Generator: Adobe Illustrator 22.0.1, SVG Export Plug-In . SVG Version: 6.00 Build 0)  -->
<svg version="1.1" baseProfile="basic" id="svg3698"
	 xmlns="http://www.w3.org/2000/svg" xmlns:xlink="http://www.w3.org/1999/xlink" x="0px" y="0px" width="90" height="108" viewBox="0 0 90 108"
	 xml:space="preserve">
<desc  id="desc3700">
	<referenceFile  id="referenceFile3702">Barometric_Pressure_Sensor__2eaec138e035.svg</referenceFile>
</desc>
<rect id="rect3705" x="18" y="17.9" fill="#FFFFFF" stroke="#000000" stroke-width="0.3556" stroke-linecap="round" width="54.1" height="72.1"/>
<line id="connector2pin" fill="none" stroke="#787878" stroke-width="0.2411" stroke-linecap="round" x1="72.5" y1="54" x2="89.6" y2="54"/>
<rect id="connector2terminal" x="90" y="54" fill="none" width="0" height="0"/>
<g id="text3708">
	<text id="tspan5370" transform="matrix(1 0 0 1 80.1016 52.781)" fill="#8C8C8C" font-family="'ArialMT'" font-size="3.33px">7</text>
</g>
<g id="text3710">
	<text id="tspan5362" transform="matrix(1 0 0 1 57.9043 55.281)" fill="#8C8C8C" font-family="'ArialMT'" font-size="4.67px">MISO</text>
</g>
<rect id="connector4terminal" x="90.1" y="63" fill="none" width="0" height="0"/>
<line id="connector3pin" fill="none" stroke="#787878" stroke-width="0.2429" stroke-linecap="round" x1="72.4" y1="72" x2="89.9" y2="72"/>
<rect id="connector3terminal" x="90.3" y="72" fill="none" width="0" height="0"/>
<g id="text3720">
	<text id="tspan3276" transform="matrix(1 0 0 1 80.1016 70.7009)" fill="#8C8C8C" font-family="'ArialMT'" font-size="3.33px">8</text>
</g>
<g id="text3722">
	<text id="tspan5366" transform="matrix(1 0 0 1 58.8398 73.2009)" fill="#8C8C8C" font-family="'ArialMT'" font-size="4.67px">DIO0</text>
</g>
<rect x="89.6" y="70.3" fill="none" width="0.9" height="0.9"/>
<rect id="connector7terminal" x="-0.1" y="36" fill="none" width="0" height="0"/>
<g id="text3726">
	<text id="tspan5451" transform="matrix(1 0 0 1 8.3223 34.5134)" fill="#8C8C8C" font-family="'ArialMT'" font-size="3.33px">3</text>
</g>
<g id="text3728">
	<text id="tspan5352" transform="matrix(1 0 0 1 20 37.3278)" fill="#8C8C8C" font-family="'ArialMT'" font-size="4.67px">RST</text>
</g>
<rect x="-0.4" y="40.6" fill="none" width="0.9" height="0.9"/>
<rect id="connector0terminal" x="-0.1" y="45" fill="none" width="0" height="0"/>
<g id="text3734">
	<text id="tspan5354" transform="matrix(1 0 0 1 20 56.3025)" fill="#8C8C8C" font-family="'ArialMT'" font-size="4.67px">NSS</text>
</g>
<rect x="-0.4" y="29.6" fill="none" width="0.9" height="0.9"/>
<line id="connector6pin" fill="none" stroke="#787878" stroke-width="0.2408" stroke-linecap="round" x1="45.1" y1="90.4" x2="45.1" y2="107.5"/>
<rect id="connector6terminal" x="45.1" y="107.9" fill="none" width="0" height="0"/>
<g transform="translate(12.341808,27.804)">
	<g>
		<g>
			<g id="g3738">
				<g id="g3740">
					<g transform="matrix(0,-1,1,0,0,0)">
						<g>
							<g>
								<g id="g3742">
									<g id="g3744">
										<g id="text3746">
											
												<text id="tspan5447" transform="matrix(1 0 0 1 -71.641 31.3887)" fill="#8C8C8C" font-family="'ArialMT'" font-size="3.33px">1</text>
										</g>
									</g>
								</g>
							</g>
						</g>
					</g>
				</g>
			</g>
		</g>
	</g>
</g>
<g transform="translate(13.192754,24.7701)">
	<g>
		<g>
			<g id="g3748">
				<g id="g3750">
					<g transform="matrix(0,-1,1,0,0,0)">
						<g>
							<g>
								<g id="g3752">
									<g id="g3754">
										<g id="text3756">
											
												<text id="tspan5358" transform="matrix(1 0 0 1 -62.9992 33.5533)" fill="#8C8C8C" font-family="'ArialMT'" font-size="4.67px">GND</text>
										</g>
									</g>
								</g>
							</g>
						</g>
					</g>
				</g>
			</g>
		</g>
	</g>
</g>
<line id="connector1pin" fill="none" stroke="#787878" stroke-width="0.2417" stroke-linecap="round" x1="45" y1="0.4" x2="45" y2="17.7"/>
<rect id="connector1terminal" x="45" y="0" fill="none" width="0" height="0"/>
<g transform="translate(12.326361,2.5929162)">
	<g>
		<g>
			<g id="g3760">
				<g id="g3762">
					<g transform="matrix(0,-1,1,0,0,0)">
						<g>
							<g>
								<g id="g3764">
									<g id="g3766">
										<g id="text3768">
											
												<text id="tspan5453" transform="matrix(1 0 0 1 -7.5201 31.3494)" fill="#8C8C8C" font-family="'ArialMT'" font-size="3.33px">2</text>
										</g>
									</g>
								</g>
							</g>
						</g>
					</g>
				</g>
			</g>
		</g>
	</g>
</g>
<g transform="translate(13.172967,5.6974162)">
	<g>
		<g>
			<g id="g3770">
				<g id="g3772">
					<g transform="matrix(0,-1,1,0,0,0)">
						<g>
							<g>
								<g id="g3774">
									<g id="g3776">
										<g id="text3778">
											
												<text id="tspan5356" transform="matrix(1 0 0 1 -22.3492 33.5028)" fill="#8C8C8C" font-family="'ArialMT'" font-size="4.67px">3V3</text>
										</g>
									</g>
								</g>
							</g>
						</g>
					</g>
				</g>
			</g>
		</g>
	</g>
</g>
<rect x="40" y="-1.9" fill="none" width="0.9" height="0.9"/>
<g id="label">
	<text id="tspan5374" transform="matrix(1 0 0 1 37.0195 49.3318)" font-family="'ArialMT'" font-size="5.67px">Ra-02</text>
</g>
<g id="text3782">
	<text id="tspan5376" transform="matrix(1 0 0 1 38.332 54.9997)" font-family="'ArialMT'" font-size="5.67px">LoRa</text>
</g>
<g id="text3784">
	<text id="tspan5378" transform="matrix(1 0 0 1 35.7012 60.6657)" font-family="'ArialMT'" font-size="5.67px">Module</text>
</g>
<line id="connector5pin" fill="none" stroke="#787878" stroke-width="0.2411" stroke-linecap="round" x1="89.6" y1="36" x2="72.4" y2="36"/>
<line id="connector2pin_1_" fill="none" stroke="#787878" stroke-width="0.2411" stroke-linecap="round" x1="0.5" y1="54" x2="17.6" y2="54"/>
<line id="connector3pin_1_" fill="none" stroke="#787878" stroke-width="0.2429" stroke-linecap="round" x1="0.4" y1="72" x2="17.9" y2="72"/>
<line id="connector5pin_1_" fill="none" stroke="#787878" stroke-width="0.2411" stroke-linecap="round" x1="17.6" y1="36" x2="0.4" y2="36"/>
<rect id="connector5terminal" x="90" y="36" fill="none" width="0" height="0"/>
<g id="text3726-8">
	<text id="tspan5368" transform="matrix(1 0 0 1 79.8281 34.7693)" fill="#8C8C8C" font-family="'ArialMT'" font-size="3.33px">6</text>
</g>
<g id="text3728-7">
	<text id="tspan5360" transform="matrix(1 0 0 1 58.6738 37.2693)" fill="#8C8C8C" font-family="'ArialMT'" font-size="4.375px">MOSI</text>
</g>
<g id="text3708_1_">
	<text id="tspan5370_1_" transform="matrix(1 0 0 1 8.1016 52.781)" fill="#8C8C8C" font-family="'ArialMT'" font-size="3.33px">4</text>
</g>
<g id="text3720_1_">
	<text id="tspan3276_1_" transform="matrix(1 0 0 1 8.1016 70.7009)" fill="#8C8C8C" font-family="'ArialMT'" font-size="3.33px">5</text>
</g>
<g id="text3734_1_">
	<text id="tspan5354_1_" transform="matrix(1 0 0 1 20 73.3025)" fill="#8C8C8C" font-family="'ArialMT'" font-size="4.67px">SCK</text>
</g>
</svg>
